<svg id="Capa_1" enable-background="new 0 0 512.003 512.003" height="512" viewBox="0 0 512.003 512.003" width="512" xmlns="http://www.w3.org/2000/svg"><g><path d="m283.865 119.713c-.497-.264-1.001-.502-1.51-.712-7.16-2.965-13.432-7.644-18.128-13.809-2.454-3.221-5.724-5.893-9.68-7.668-12.862-5.77-27.67-.034-33.299 12.891-5.473 12.569.156 27.242 12.689 32.901 3.78 1.707 7.76 2.4 11.634 2.194 7.783-.413 15.627.786 22.572 4.323.239.121.481.238.728.349 8.877 4.009 19.384-.242 22.889-9.491 3-7.912-.423-17.006-7.895-20.978z" fill="#3d6b73"/><path d="m336.44 32.4-39.011 16.852c-3.275 1.415-5.039 4.999-4.16 8.457l1.31 5.159c1.278 5.032-1.374 10.232-6.198 12.152-4.213 1.677-9.027.413-11.873-3.117l-4.863-6.032c-7.267-9.013-18.816-13.427-30.242-11.558-9.134 1.495-17.182 6.851-22.088 14.699l-6.753 10.805c-3.029 4.847-9.296 6.517-14.335 3.821-5.458-2.919-7.377-9.802-4.217-15.125l8.84-14.888c6.813-11.474 17.231-20.372 29.63-25.305l21.905-8.715 36.227-12.104z" fill="#f1d0a5"/><g fill="#3d6b73"><path d="m157.251 338.797h-33.422c-11.353 0-20.557-9.204-20.557-20.557v-27.227c0-11.353 9.204-20.557 20.557-20.557h33.422z"/><path d="m354.751 338.797h33.422c11.353 0 20.557-9.204 20.557-20.557v-27.227c0-11.353-9.204-20.557-20.557-20.557h-33.422z"/></g><path d="m324.761 504.503h-137.52c-19.98 0-36.56-15.446-37.974-35.375l-18.3-257.95h250.067l-18.3 257.95c-1.413 19.929-17.994 35.375-37.973 35.375z" fill="#b4d0d5"/><path d="m381.034 211.177h-25.607-224.46l1.491 21.015h179.411c22.735 0 40.699 19.284 39.091 41.962l-13.832 194.973c-1.414 19.93-17.994 35.375-37.974 35.375h25.607c19.98 0 36.56-15.446 37.974-35.375l16.809-236.935z" fill="#9bb9c1"/><path d="m401.84 211.177h-291.679c-3.524 0-6.381-2.857-6.381-6.381v-25.473c0-3.524 2.857-6.381 6.381-6.381h291.679c3.524 0 6.381 2.857 6.381 6.381v25.473c0 3.524-2.857 6.381-6.381 6.381z" fill="#3d6b73"/><path d="m401.84 172.941h-25.607c3.524 0 6.382 2.857 6.382 6.382v25.473c0 3.524-2.857 6.382-6.382 6.382h25.607c3.524 0 6.382-2.857 6.382-6.382v-25.473c-.001-3.524-2.858-6.382-6.382-6.382z" fill="#2e5459"/><g><path d="m194.688 90.252c2.734 1.463 5.692 2.16 8.617 2.159 6.153 0 12.159-3.086 15.617-8.619l6.753-10.805c3.761-6.018 9.935-10.127 16.939-11.272 8.741-1.431 17.63 1.966 23.191 8.863l4.863 6.033c4.941 6.127 13.174 8.287 20.485 5.376 8.294-3.301 12.891-12.314 10.692-20.966l-1.261-4.963 38.828-16.773c3.802-1.643 5.553-6.057 3.91-9.859-1.642-3.801-6.051-5.552-9.859-3.91l-39.009 16.852c-6.695 2.891-10.252 10.119-8.458 17.189l1.311 5.158c.351 1.377-.382 2.811-1.7 3.336-1.162.462-2.475.121-3.262-.854l-4.863-6.033c-8.943-11.09-23.229-16.551-37.292-14.251-11.262 1.842-21.188 8.448-27.237 18.126l-6.753 10.804c-.935 1.495-2.886 2.012-4.438 1.184-1.687-.902-2.284-3.033-1.305-4.682l8.84-14.888c5.935-9.996 15.151-17.867 25.953-22.165l21.709-8.637 36.027-12.038c3.929-1.312 6.049-5.562 4.736-9.49-1.312-3.928-5.563-6.051-9.49-4.736l-36.227 12.104c-.133.044-.265.093-.396.145l-21.905 8.715c-13.862 5.515-25.69 15.617-33.307 28.444l-8.84 14.888c-5.331 8.981-2.085 20.635 7.131 25.565z"/><path d="m199.825 301.546v112.589c0 4.143 3.357 7.5 7.5 7.5s7.5-3.357 7.5-7.5v-112.589c0-4.143-3.357-7.5-7.5-7.5s-7.5 3.357-7.5 7.5z"/><path d="m248.5 278.403v158.874c0 4.143 3.357 7.5 7.5 7.5s7.5-3.357 7.5-7.5v-158.874c0-4.143-3.357-7.5-7.5-7.5-4.142 0-7.5 3.357-7.5 7.5z"/><path d="m297.175 301.546v112.589c0 4.143 3.357 7.5 7.5 7.5s7.5-3.357 7.5-7.5v-112.589c0-4.143-3.357-7.5-7.5-7.5s-7.5 3.357-7.5 7.5z"/><path d="m388.172 262.957h-3.292l3.141-44.279h13.818c7.654 0 13.882-6.228 13.882-13.882v-25.473c0-7.654-6.228-13.882-13.882-13.882h-230.301c-4.143 0-7.5 3.357-7.5 7.5s3.357 7.5 7.5 7.5h229.183v23.236h-289.44v-23.236h30.271c4.143 0 7.5-3.357 7.5-7.5s-3.357-7.5-7.5-7.5h-31.391c-7.654 0-13.881 6.228-13.881 13.882v25.473c0 7.654 6.227 13.882 13.881 13.882h13.819l3.141 44.279h-3.292c-15.471 0-28.057 12.586-28.057 28.057v27.227c0 15.471 12.586 28.057 28.057 28.057h9.204l8.752 123.362c1.685 23.744 21.651 42.344 45.455 42.344h137.52c23.804 0 43.771-18.6 45.455-42.345l2.837-40c.293-4.132-2.819-7.719-6.951-8.012-4.132-.288-7.719 2.818-8.012 6.951l-2.837 39.999c-1.13 15.929-14.523 28.406-30.492 28.406h-137.52c-15.969 0-29.362-12.478-30.492-28.405l-17.73-249.92h233.966l-12.766 179.932c-.293 4.131 2.819 7.719 6.951 8.012 4.118.292 7.719-2.818 8.012-6.95l3.787-53.375h9.205c15.471 0 28.058-12.586 28.058-28.057v-27.227c-.001-15.47-12.588-28.056-28.059-28.056zm-264.343 68.339c-7.199 0-13.057-5.857-13.057-13.057v-27.227c0-7.199 5.857-13.057 13.057-13.057h4.356l3.784 53.34h-8.14zm277.401-13.056c0 7.199-5.857 13.057-13.058 13.057h-8.14l3.784-53.34h4.356c7.2 0 13.058 5.857 13.058 13.057z"/><path d="m237.897 103.952c4.382-1.694 9.205-1.546 13.579.414.621.279 1.252.61 1.875.984 3.552 2.13 8.159.979 10.29-2.573s.979-8.158-2.573-10.29c-1.129-.677-2.289-1.284-3.451-1.806-8.062-3.617-16.989-3.871-25.134-.719-8.149 3.154-14.581 9.354-18.109 17.457-7.083 16.262.31 35.431 16.478 42.731 4.736 2.139 9.969 3.132 15.118 2.849 7.127-.383 13.446.805 18.767 3.514 3.531 1.8 7.352 2.666 11.131 2.666 3.185 0 6.372-.616 9.359-1.852 6.31-2.609 11.121-7.574 13.548-13.979 4.354-11.486-.542-24.494-11.384-30.256-.899-.478-3.609-1.68-3.712-1.724-3.757-1.752-8.217-.126-9.968 3.626-1.751 3.754-.127 8.217 3.626 9.968.101.045 2.773 1.246 3.01 1.373 4.124 2.191 6.058 7.329 4.402 11.696-.945 2.493-2.812 4.423-5.256 5.434-2.445 1.012-5.121.971-7.539-.122-.136-.062-.27-.125-.406-.195-7.703-3.924-16.576-5.657-26.374-5.128-2.811.151-5.554-.369-8.148-1.54-8.73-3.943-12.723-14.293-8.899-23.072 1.915-4.402 5.385-7.76 9.77-9.456z"/></g></g></svg>