<svg width="167" height="123" viewBox="0 0 167 123" fill="none" xmlns="http://www.w3.org/2000/svg">
<path d="M149.743 60.2869C147.751 62.1015 145.971 64.0386 144.422 66.0771L135.328 63.7365L107.002 70.7294L106.991 91.2851C106.894 95.9944 108.292 100.655 111.073 104.889C113.854 109.123 117.938 112.812 122.996 115.657L122.996 117.128C120.94 118.364 118.498 119.195 115.895 119.545C113.291 119.894 110.611 119.751 108.102 119.128C105.593 118.505 103.336 117.423 101.539 115.981C99.7423 114.539 98.4644 112.784 97.8234 110.878L91.0367 90.2724C90.5258 88.7569 89.3475 87.4114 87.6889 86.4495C86.0302 85.4877 83.9863 84.9647 81.8818 84.9636C79.7773 84.9625 77.7329 85.4834 76.0732 86.4435C74.4135 87.4036 73.2338 88.7479 72.7214 90.2629L65.9133 110.862C65.0779 113.406 63.115 115.667 60.3399 117.283C57.5312 118.898 54.0738 119.768 50.5201 119.754C46.8126 119.667 43.2553 118.645 40.4356 116.856C37.6158 115.066 35.7022 112.617 35.0108 109.911C32.812 102.015 29.7338 90.8012 27.2209 81.8768C26.4197 78.8584 25.2737 75.8962 23.7953 73.022C21.4675 68.3821 18.1318 64.0563 13.9206 60.2162C6.9548 53.9575 3.15215 46.09 3.16956 37.973C3.1701 36.9453 3.17064 35.8941 3.36001 34.8431C4.39884 26.6818 9.24014 19.046 17.0498 13.2512C24.8594 7.4564 35.1482 3.86554 46.1435 3.0973C47.5597 2.95789 48.9759 2.95862 50.392 2.95936C55.6063 2.96014 60.7846 3.60217 65.7167 4.85939C76.1899 7.57422 87.5912 7.58014 98.0673 4.87621C102.981 3.62919 108.138 2.9926 113.331 2.99208C114.716 2.9928 116.132 2.99354 117.548 3.13443C125.873 3.724 133.842 5.93508 140.648 9.54404C147.454 13.153 152.856 18.0318 156.308 23.687C158.485 27.2301 159.835 31.0224 160.298 34.9013C161.427 44.0663 157.634 53.1901 149.743 60.2869Z" fill="#A1D8DF"/>
<path d="M156.339 23.687C151.791 34.5835 143.727 44.4901 132.848 52.5463C124.089 59.0587 113.683 64.2221 102.226 67.7397C90.7699 71.2573 78.4894 73.06 66.0903 73.044L48.9079 73.0351C42.1918 72.9722 35.5784 71.7995 29.5482 69.6024C23.518 67.4053 18.2225 64.2388 14.0463 60.3331L14.0464 60.2163C7.03529 53.9704 3.18748 46.1016 3.16953 37.9731C3.17006 36.9453 3.17061 35.8941 3.35997 34.8431C4.39881 26.6818 9.2401 19.046 17.0497 13.2512C24.8593 7.4564 35.1482 3.86554 46.1435 3.0973C47.5597 2.95789 48.9758 2.95862 50.392 2.95936C55.6062 2.96014 60.7846 3.60217 65.7166 4.85939C76.1898 7.57422 87.5912 7.58015 98.0672 4.87621C102.981 3.62919 108.138 2.9926 113.331 2.99208C114.716 2.9928 116.132 2.99354 117.548 3.13443C125.879 3.72005 133.854 5.92932 140.666 9.5385C147.478 13.1477 152.885 18.0286 156.339 23.687Z" fill="#D1E6E9"/>
<path d="M163.648 70.758L163.637 91.3138C163.63 105.166 151.759 117.002 135.299 119.797C131.355 119.151 127.608 117.96 124.255 116.287C118.831 113.493 114.418 109.75 111.407 105.389C108.396 101.028 106.879 96.1835 106.992 91.2844L107.002 70.7286L135.329 63.7357L144.422 66.0763L163.648 70.758Z" fill="#30ACC2"/>
<path d="M132.163 98.7731C131.749 98.7747 131.339 98.7155 130.955 98.5991C130.572 98.4827 130.223 98.3112 129.929 98.0946L123.638 93.4195C123.046 92.9794 122.713 92.3826 122.713 91.7606C122.714 91.1385 123.047 90.5421 123.64 90.1026C124.233 89.663 125.036 89.4163 125.874 89.4168C126.712 89.4172 127.516 89.6647 128.108 90.1049L132.166 93.1436L145.672 83.1064C146.265 82.6668 147.069 82.4201 147.907 82.4206C148.745 82.421 149.548 82.6685 150.141 83.1087C150.733 83.5489 151.066 84.1456 151.065 84.7677C151.065 85.3897 150.732 85.9861 150.139 86.4256L134.398 98.0969C134.104 98.3132 133.755 98.4843 133.372 98.6004C132.988 98.7164 132.578 98.7751 132.163 98.7731Z" fill="#D1E6E9"/>
<path d="M16.7765 15.8113C16.0264 15.811 15.3011 15.6118 14.7312 15.2497C14.4172 15.0501 14.1593 14.8066 13.972 14.5331C13.7848 14.2596 13.6719 13.9614 13.6399 13.6555C13.608 13.3497 13.6574 13.0421 13.7856 12.7505C13.9137 12.4589 14.118 12.1889 14.3868 11.9559C14.6775 11.7053 14.9932 11.4712 15.3312 11.2556C15.9658 10.8533 16.7897 10.6545 17.6218 10.7032C18.4539 10.7518 19.226 11.0438 19.7683 11.5149C20.3106 11.986 20.5785 12.5976 20.5133 13.2153C20.4481 13.8329 20.0549 14.4059 19.4204 14.8083L19.1686 14.995C18.873 15.2513 18.5061 15.4569 18.0931 15.5978C17.6802 15.7388 17.231 15.8116 16.7765 15.8113ZM113.049 122.121C108.823 122.12 104.718 121.067 101.393 119.13C98.0678 117.193 95.7138 114.483 94.7081 111.436L87.9214 90.8302C87.5809 89.8198 86.7953 88.9228 85.6896 88.2816C84.5838 87.6404 83.2212 87.2917 81.8182 87.291C80.4152 87.2902 79.0522 87.6375 77.9458 88.2776C76.8393 88.9176 76.0529 89.8138 75.7113 90.8238L68.9031 111.423C67.9253 114.474 65.5695 117.185 62.2276 119.104C59.6987 120.576 56.7053 121.545 53.5307 121.918C50.3562 122.291 47.1056 122.056 44.087 121.235C41.0684 120.415 38.3816 119.037 36.2812 117.23C34.1807 115.424 32.7361 113.249 32.0841 110.913L28.9431 99.5124C27.3411 93.7652 25.8023 87.6211 24.1373 82.2243C22.2852 74.7217 17.9648 67.6744 11.5601 61.7087C3.14776 54.1251 -0.905625 44.3891 0.27668 34.6066C0.926444 29.3711 3.07489 24.2992 6.57831 19.7303C6.9959 19.1916 7.68478 18.7981 8.49339 18.6364C9.302 18.4747 10.1641 18.5582 10.8901 18.8683C11.616 19.1784 12.1464 19.6899 12.3644 20.2901C12.5825 20.8904 12.4704 21.5303 12.0528 22.0691C9.00067 26.0647 7.14168 30.5009 6.6018 35.0771C5.53482 43.6278 9.07172 52.1453 16.4394 58.7681C23.5175 65.3282 28.3121 73.0802 30.4001 81.3399C31.9079 86.7133 33.5411 92.8575 35.206 98.628L38.347 110.029C38.947 112.107 40.4833 113.971 42.7023 115.314C44.9214 116.657 47.6906 117.399 50.5533 117.416C53.3786 117.413 56.1229 116.716 58.3588 115.435C60.5896 114.185 62.196 112.419 62.9245 110.415L69.7326 89.7929C70.4158 87.7729 71.9888 85.9806 74.2016 84.7004C76.4145 83.4202 79.1404 82.7257 81.9464 82.7272C84.7524 82.7287 87.4776 83.426 89.6892 84.7084C91.9007 85.9909 93.4718 87.7849 94.1529 89.8056L100.688 110.435C101.146 111.825 102.028 113.118 103.266 114.216C104.504 115.313 106.065 116.184 107.828 116.763C109.591 117.342 111.51 117.612 113.436 117.553C115.362 117.495 117.244 117.108 118.937 116.424C114.111 113.299 110.261 109.43 107.655 105.088C105.048 100.746 103.748 96.0348 103.845 91.2823L103.848 84.7418C103.848 84.1223 104.18 83.5283 104.771 83.0906C105.361 82.6528 106.162 82.4071 106.996 82.4075C107.831 82.408 108.631 82.6545 109.221 83.0929C109.811 83.5312 110.142 84.1255 110.142 84.7451L110.139 91.2855C110.023 95.7867 111.396 100.241 114.137 104.257C116.878 108.274 120.904 111.731 125.861 114.326C126.243 114.514 126.565 114.763 126.804 115.053C127.043 115.344 127.194 115.67 127.245 116.008C127.3 116.345 127.255 116.687 127.113 117.009C126.972 117.332 126.737 117.628 126.426 117.876C125.943 118.258 125.428 118.617 124.883 118.95C121.544 120.98 117.367 122.099 113.049 122.121ZM106.999 77.7358C106.164 77.7353 105.364 77.4888 104.774 77.0505C104.184 76.6121 103.853 76.0178 103.853 75.3983L103.855 70.7265C103.82 70.2171 104.01 69.7131 104.397 69.2915C104.783 68.87 105.345 68.5539 105.997 68.3917L134.323 61.3988C134.976 61.2354 135.684 61.2357 136.337 61.3999L143.039 63.0618C144.334 61.5374 145.764 60.0788 147.321 58.6959C154.676 52.0639 158.219 43.549 157.183 34.9919C156.592 30.0528 154.495 25.278 151.052 21.0284C147.608 16.7788 142.908 13.1657 137.307 10.4624C131.706 7.75918 125.351 6.03651 118.721 5.42471C112.092 4.81291 105.363 5.32801 99.0423 6.93104C87.9046 9.80919 75.7809 9.80289 64.6462 6.91316C58.7903 5.43839 52.5849 4.88622 46.4262 5.29193C40.2605 5.68769 34.2819 7.06274 28.8956 9.32389C28.1693 9.63327 27.3071 9.71578 26.4987 9.55328C25.6902 9.39078 25.0017 8.99657 24.5847 8.45737C24.1677 7.91818 24.0562 7.27817 24.2749 6.67813C24.4936 6.0781 25.0245 5.5672 25.7507 5.25782C31.9099 2.6623 38.7451 1.07309 45.7992 0.596476C52.8434 0.135007 59.9401 0.775302 66.631 2.47601C76.4347 5.05125 87.1298 5.05681 96.9362 2.49177C107.305 -0.137061 118.548 -0.18298 128.957 2.36098C139.367 4.90494 148.375 9.89988 154.615 16.5877C160.855 23.2756 163.986 31.2912 163.532 39.4181C163.079 47.5449 159.066 55.3393 152.103 61.6183C150.22 63.2931 148.545 65.0904 147.096 66.9882C146.733 67.4586 146.161 67.8206 145.478 68.012C144.794 68.2034 144.042 68.2124 143.351 68.0374L135.327 66.1879L110.148 72.4116L110.147 75.4015C110.147 76.021 109.815 76.615 109.224 77.0528C108.634 77.4905 107.833 77.7362 106.999 77.7358Z" fill="#03426D"/>
<path d="M81.8511 23.9983C69.1301 23.8177 56.6701 21.282 45.6021 16.6214C45.1749 16.4999 44.7885 16.3108 44.4697 16.0672C44.151 15.8236 43.9076 15.5313 43.7565 15.2108C43.6055 14.8903 43.5503 14.5492 43.595 14.2113C43.6396 13.8734 43.783 13.5468 44.0151 13.2543C44.2471 12.9618 44.5624 12.7103 44.9388 12.5175C45.3152 12.3247 45.7437 12.1951 46.1945 12.1377C46.6454 12.0804 47.1077 12.0967 47.5492 12.1855C47.9907 12.2743 48.4009 12.4335 48.7511 12.652C58.8969 16.8304 70.2555 19.1206 81.8535 19.3265C93.4109 19.1278 104.73 16.8492 114.837 12.6864C115.187 12.4683 115.598 12.3095 116.039 12.2211C116.481 12.1328 116.943 12.1169 117.394 12.1747C117.845 12.2325 118.273 12.3626 118.649 12.5558C119.026 12.749 119.341 13.0008 119.572 13.2936C119.804 13.5864 119.947 13.9131 119.991 14.2511C120.036 14.589 119.98 14.93 119.829 15.2504C119.677 15.5707 119.434 15.8627 119.115 16.106C118.796 16.3493 118.409 16.538 117.982 16.659C106.946 21.2932 94.5295 23.8154 81.8511 23.9983ZM135.298 122.133L134.606 122.133C130.28 121.415 126.172 120.106 122.492 118.272C116.65 115.246 111.895 111.204 108.645 106.499C105.394 101.794 103.746 96.5696 103.845 91.2831L103.848 84.7427C103.848 84.1232 104.18 83.5292 104.771 83.0914C105.361 82.6537 106.162 82.408 106.996 82.4084C107.831 82.4089 108.631 82.6554 109.221 83.0937C109.811 83.5321 110.142 84.1264 110.142 84.7459L110.139 91.2864C110.023 95.7876 111.396 100.242 114.137 104.258C116.878 108.275 120.904 111.732 125.861 114.326C128.722 115.792 131.922 116.855 135.301 117.461C149.935 114.783 160.483 103.903 160.49 91.3827L160.5 72.4387L135.327 66.1888L110.148 72.4125L110.147 75.4024C110.147 76.0219 109.815 76.6159 109.224 77.0537C108.634 77.4914 107.833 77.7371 106.999 77.7367C106.164 77.7362 105.364 77.4897 104.774 77.0513C104.184 76.613 103.853 76.0187 103.853 75.3991L103.855 70.7274C103.82 70.218 104.01 69.714 104.397 69.2924C104.783 68.8708 105.345 68.5548 105.997 68.3926L134.323 61.3997C134.976 61.2363 135.684 61.2366 136.337 61.4007L164.656 68.4231C165.307 68.586 165.868 68.9026 166.255 69.3246C166.641 69.7466 166.83 70.2507 166.794 70.7601L166.784 91.3159C166.776 106.219 153.835 119.153 135.991 122.087L135.298 122.133Z" fill="#03426D"/>
</svg>
