<svg width="2786" height="674" viewBox="0 0 2786 674" fill="none" xmlns="http://www.w3.org/2000/svg">
<path fill-rule="evenodd" clip-rule="evenodd" d="M0.621949 317.206L58.6538 293.536C116.686 269.865 232.749 222.524 348.807 187.033C464.864 151.542 580.916 127.902 696.955 127.962C812.993 128.023 929.02 151.784 1045.07 128.143C1161.12 104.503 1277.2 33.4609 1393.25 9.8205C1509.3 -13.8199 1625.33 9.94116 1741.31 116.655C1857.3 223.369 1973.24 413.035 2089.26 448.646C2205.28 484.258 2321.38 365.814 2437.46 282.922C2553.54 200.03 2669.61 152.689 2727.64 129.018L2785.67 105.347L2785.37 674.165L2727.35 674.135C2669.33 674.105 2553.3 674.045 2437.26 673.984C2321.22 673.924 2205.18 673.864 2089.14 673.803C1973.1 673.743 1857.06 673.683 1741.02 673.622C1624.98 673.562 1508.94 673.502 1392.91 673.441C1276.87 673.381 1160.83 673.321 1044.79 673.26C928.749 673.2 812.71 673.14 696.671 673.079C580.632 673.019 464.593 672.959 348.554 672.898C232.515 672.838 116.476 672.778 58.4566 672.748L0.437121 672.717L0.621949 317.206Z" fill="#0099FF"/>
</svg>
