<svg width="2786" height="944" viewBox="0 0 2786 944" fill="none" xmlns="http://www.w3.org/2000/svg">
<path fill-rule="evenodd" clip-rule="evenodd" d="M2786.46 496.597L2728.45 529.93C2670.44 563.262 2554.42 629.927 2438.38 679.953C2322.34 729.979 2206.29 763.365 2090.21 763.472C1974.12 763.58 1858.01 730.409 1741.96 763.795C1625.91 797.182 1509.91 897.125 1393.86 930.512C1277.81 963.898 1161.7 930.727 1045.47 781.08C929.252 631.434 812.922 365.312 696.792 315.502C580.663 265.691 464.734 432.192 348.759 548.775C232.783 665.358 116.762 732.023 58.7507 765.356L0.740108 798.688L-0.000369552 -0.000158123L58.0411 -0.0539693C116.083 -0.107781 232.166 -0.215404 348.249 -0.323026C464.333 -0.430649 580.416 -0.538272 696.499 -0.645894C812.582 -0.753517 928.666 -0.86114 1044.75 -0.968762C1160.83 -1.07638 1276.92 -1.18401 1393 -1.29163C1509.08 -1.39925 1625.16 -1.50688 1741.25 -1.6145C1857.33 -1.72212 1973.41 -1.82974 2089.5 -1.93737C2205.58 -2.04499 2321.66 -2.15261 2437.75 -2.26023C2553.83 -2.36786 2669.91 -2.47548 2727.96 -2.52929L2786 -2.5831L2786.46 496.597Z" fill="#0099FF"/>
</svg>
